<mxfile host="app.diagrams.net" agent="Mozilla/5.0 (Macintosh; Intel Mac OS X 10_15_7) AppleWebKit/605.1.15 (KHTML, like Gecko) Version/18.0.1 Safari/605.1.15" version="24.7.17">
  <diagram name="Page-1" id="nKaYHhrItWZN-qVr3WeW">
    <mxGraphModel dx="866" dy="486" grid="1" gridSize="10" guides="1" tooltips="1" connect="1" arrows="1" fold="1" page="1" pageScale="1" pageWidth="827" pageHeight="1169" math="0" shadow="0">
      <root>
        <mxCell id="0" />
        <mxCell id="1" parent="0" />
        <mxCell id="fm5KzwTFl_PUq41AxEeN-7" style="edgeStyle=orthogonalEdgeStyle;rounded=0;orthogonalLoop=1;jettySize=auto;html=1;exitX=0.5;exitY=0;exitDx=0;exitDy=0;entryX=0.25;entryY=0;entryDx=0;entryDy=0;" edge="1" parent="1" source="fm5KzwTFl_PUq41AxEeN-1" target="fm5KzwTFl_PUq41AxEeN-2">
          <mxGeometry relative="1" as="geometry" />
        </mxCell>
        <mxCell id="fm5KzwTFl_PUq41AxEeN-8" value="Add User To Cart (POST)" style="edgeLabel;html=1;align=center;verticalAlign=middle;resizable=0;points=[];" vertex="1" connectable="0" parent="fm5KzwTFl_PUq41AxEeN-7">
          <mxGeometry x="-0.079" y="-2" relative="1" as="geometry">
            <mxPoint x="6" as="offset" />
          </mxGeometry>
        </mxCell>
        <mxCell id="fm5KzwTFl_PUq41AxEeN-1" value="Customer Service" style="rounded=1;whiteSpace=wrap;html=1;" vertex="1" parent="1">
          <mxGeometry x="294" y="555" width="120" height="60" as="geometry" />
        </mxCell>
        <mxCell id="fm5KzwTFl_PUq41AxEeN-9" style="edgeStyle=orthogonalEdgeStyle;rounded=0;orthogonalLoop=1;jettySize=auto;html=1;exitX=0.5;exitY=0;exitDx=0;exitDy=0;entryX=0.25;entryY=0;entryDx=0;entryDy=0;" edge="1" parent="1" source="fm5KzwTFl_PUq41AxEeN-2" target="fm5KzwTFl_PUq41AxEeN-1">
          <mxGeometry relative="1" as="geometry">
            <Array as="points">
              <mxPoint x="540" y="510" />
              <mxPoint x="324" y="510" />
            </Array>
          </mxGeometry>
        </mxCell>
        <mxCell id="fm5KzwTFl_PUq41AxEeN-10" value="Sends back Cart ID" style="edgeLabel;html=1;align=center;verticalAlign=middle;resizable=0;points=[];" vertex="1" connectable="0" parent="fm5KzwTFl_PUq41AxEeN-9">
          <mxGeometry x="0.021" relative="1" as="geometry">
            <mxPoint as="offset" />
          </mxGeometry>
        </mxCell>
        <mxCell id="fm5KzwTFl_PUq41AxEeN-2" value="Cart Service" style="rounded=1;whiteSpace=wrap;html=1;" vertex="1" parent="1">
          <mxGeometry x="480" y="555" width="120" height="60" as="geometry" />
        </mxCell>
        <mxCell id="fm5KzwTFl_PUq41AxEeN-3" value="Cart&amp;nbsp;&lt;div&gt;Repo&lt;/div&gt;" style="shape=cylinder3;whiteSpace=wrap;html=1;boundedLbl=1;backgroundOutline=1;size=15;" vertex="1" parent="1">
          <mxGeometry x="510" y="680" width="60" height="80" as="geometry" />
        </mxCell>
        <mxCell id="fm5KzwTFl_PUq41AxEeN-4" value="Customer&amp;nbsp;&lt;div&gt;Repo&lt;/div&gt;" style="shape=cylinder3;whiteSpace=wrap;html=1;boundedLbl=1;backgroundOutline=1;size=15;" vertex="1" parent="1">
          <mxGeometry x="324" y="680" width="60" height="80" as="geometry" />
        </mxCell>
        <mxCell id="fm5KzwTFl_PUq41AxEeN-5" style="edgeStyle=orthogonalEdgeStyle;rounded=0;orthogonalLoop=1;jettySize=auto;html=1;exitX=0.5;exitY=1;exitDx=0;exitDy=0;entryX=0.5;entryY=0;entryDx=0;entryDy=0;entryPerimeter=0;" edge="1" parent="1" source="fm5KzwTFl_PUq41AxEeN-1" target="fm5KzwTFl_PUq41AxEeN-4">
          <mxGeometry relative="1" as="geometry" />
        </mxCell>
        <mxCell id="fm5KzwTFl_PUq41AxEeN-11" value="Updates the&lt;div&gt;user&#39;s cart&lt;/div&gt;" style="edgeLabel;html=1;align=center;verticalAlign=middle;resizable=0;points=[];" vertex="1" connectable="0" parent="fm5KzwTFl_PUq41AxEeN-5">
          <mxGeometry x="-0.3744" y="-1" relative="1" as="geometry">
            <mxPoint x="1" y="15" as="offset" />
          </mxGeometry>
        </mxCell>
        <mxCell id="fm5KzwTFl_PUq41AxEeN-6" style="edgeStyle=orthogonalEdgeStyle;rounded=0;orthogonalLoop=1;jettySize=auto;html=1;exitX=0.5;exitY=1;exitDx=0;exitDy=0;entryX=0.5;entryY=0;entryDx=0;entryDy=0;entryPerimeter=0;" edge="1" parent="1" source="fm5KzwTFl_PUq41AxEeN-2" target="fm5KzwTFl_PUq41AxEeN-3">
          <mxGeometry relative="1" as="geometry">
            <Array as="points">
              <mxPoint x="540" y="660" />
              <mxPoint x="540" y="660" />
            </Array>
          </mxGeometry>
        </mxCell>
        <mxCell id="fm5KzwTFl_PUq41AxEeN-12" value="Create a new cart" style="edgeLabel;html=1;align=center;verticalAlign=middle;resizable=0;points=[];" vertex="1" connectable="0" parent="fm5KzwTFl_PUq41AxEeN-6">
          <mxGeometry x="-0.2541" y="1" relative="1" as="geometry">
            <mxPoint x="-1" y="1" as="offset" />
          </mxGeometry>
        </mxCell>
      </root>
    </mxGraphModel>
  </diagram>
</mxfile>
